<mxfile host="app.diagrams.net" modified="2024-05-26T12:43:53.614Z" agent="Mozilla/5.0 (Windows NT 10.0; Win64; x64; rv:126.0) Gecko/20100101 Firefox/126.0" version="24.4.8" etag="Ojz2eZ2CqI3_tITZWQjK" type="github">
  <diagram name="Page-1" id="E-_p8wknGFhFh1wgoca6">
    <mxGraphModel>
      <root>
        <mxCell id="0" />
        <mxCell id="1" parent="0" />
      </root>
    </mxGraphModel>
  </diagram>
</mxfile>
